<svg id="Capa_1" enable-background="new 0 0 512 512" height="512" viewBox="0 0 512 512" width="512" xmlns="http://www.w3.org/2000/svg"><g><path d="m512 256c0 66.48-25.35 127.04-66.89 172.55-1.75 1.91-3.52 3.8-5.34 5.66l-8.36-.46c-24.43-1.35-44.98 18.09-44.98 42.56-37.99 22.55-82.3 35.54-129.64 35.69h-.79c-47.64 0-92.24-13.01-130.44-35.69 0-24.47-20.55-43.91-44.98-42.56l-8.35.46h-.01c-1.81-1.86-3.58-3.75-5.33-5.66-14.46-15.84-26.96-33.5-37.1-52.61-16.35-30.76-26.61-65.26-29.16-101.88-.42-5.96-.63-11.99-.63-18.06 0-46.22 12.25-89.57 33.68-127 44.12-77.07 127.16-129 222.32-129s178.2 51.93 222.32 129c12.98 22.67 22.59 47.52 28.15 73.86 3.46 16.36 5.35 33.28 5.52 50.62.01.84.01 1.68.01 2.52z" fill="#4b4a59"/><path d="m512 256c0 47.56-12.97 92.09-35.58 130.25-10.31 17.42-22.63 33.51-36.65 47.95v.01h-.01l-8.35-.46c-24.43-1.35-44.98 18.09-44.98 42.56 0 0 0 0 .01.01-38.2 22.66-82.79 35.68-130.44 35.68-47.64 0-92.24-13.01-130.44-35.69 0-24.47-20.55-43.91-44.98-42.56l-8.36.46c-13.76-14.18-25.89-29.95-36.08-47.01-22.95-38.37-36.14-83.25-36.14-131.2 0-46.22 12.25-89.57 33.68-127 25.41 44.38 63.72 80.43 109.83 103.01 33.68 16.52 71.52 25.84 111.52 25.98.32.01.65.01.97.01s.65 0 .97-.01c40-.14 77.83-9.46 111.51-25.97 46.11-22.58 84.43-58.63 109.84-103.02 21.43 37.43 33.68 80.78 33.68 127z" fill="#383649"/><g><g><path d="m439.77 434.2c-15.77 16.28-33.7 30.47-53.32 42.11h-34.19c-10.98 0-20.77-6.92-24.41-17.27l-70.88-201.05-.97-2.75-8.947-25.374c-20.596-58.41 9.993-122.467 68.367-143.166 1.64 1.32 2.92 3.1 3.65 5.18l49.41 140.14z" fill="#16bf46"/><path d="m271.1 167.83-15.1 87.41-.97 2.75-64.13 181.9-6.75 19.14c-3.65 10.36-13.43 17.28-24.41 17.28h-34.18c-19.62-11.63-37.56-25.82-53.34-42.1l71.29-202.2 49.41-140.13c1.64-4.66 6.04-7.78 10.98-7.78h52.1c14.73 25.27 20.08 54.91 15.1 83.73z" fill="#4086f5"/><path d="m315.42 86.703-59.42 168.537v-171.135h52.101c2.727 0 5.293.948 7.319 2.598z" fill="#4175df"/></g></g></g></svg>